<svg id="Layer_1" data-name="Layer 1" xmlns="http://www.w3.org/2000/svg" xmlns:xlink="http://www.w3.org/1999/xlink" viewBox="0 0 2748.05 2563.58"><defs><style>.cls-1{fill:none;stroke:#000;stroke-miterlimit:10;}</style></defs><image width="557" height="198" transform="translate(1188.51 48.04)" xlink:href="Vector%202.png"/><path class="cls-1" d="M1183.51,83.5s191.66-5,295.33,105,261.67,93,261.67,93l29,16s-32.62,251.14-313.81,227.07S1154.51,742.5,1154.51,742.5l29,51.5s191.66-5,295.33,105,261.67,93,261.67,93l29,16s-32.62,251.14-313.81,227.07S1154.51,1453,1154.51,1453l29,51.5s191.66-5,295.33,105,261.67,93,261.67,93l29,16s-32.62,251.14-313.81,227.07-301.19,217.93-301.19,217.93" transform="translate(0 -35.96)"/><path class="cls-1" d="M29.51,36.5s191.66-5,295.33,105,261.67,93,261.67,93l29,16S582.89,501.64,301.7,477.57.51,695.5.51,695.5l29,51.5s191.66-5,295.33,105,261.67,93,261.67,93l29,16s-32.62,251.14-313.81,227.07S.51,1406,.51,1406l29,51.5s191.66-5,295.33,105,261.67,93,261.67,93l29,16s-32.62,251.14-313.81,227.07S.51,2116.5.51,2116.5" transform="translate(0 -35.96)"/><path class="cls-1" d="M2161.51,1940.5s191.66-5,295.33,105,261.67,93,261.67,93l29,16s-32.62,251.14-313.81,227.07-301.19,217.93-301.19,217.93" transform="translate(0 -35.96)"/><path class="cls-1" d="M1996.51,96.5s191.66-5,295.33,105,261.67,93,261.67,93l29,16s-32.62,251.14-313.81,227.07S1967.51,755.5,1967.51,755.5" transform="translate(0 -35.96)"/><path class="cls-1" d="M1990.76,782.5s191.66-5,295.33,105,261.67,93,261.67,93l29,16s-32.62,251.14-313.81,227.07-301.19,217.93-301.19,217.93" transform="translate(0 -35.96)"/></svg>